<svg xmlns="http://www.w3.org/2000/svg" width="512" height="512" viewBox="0 0 512 512">
<title>简约古风圆形_5_天水碧_水波</title>

<!-- 整体纯色填充 -->
<circle cx="256" cy="256" r="228" fill="#EAF4F3"/>

<!-- 简约细边框 -->
<circle cx="256" cy="256" r="228" fill="none" stroke="#678786" stroke-width="1.6" opacity="0.85"/>
<circle cx="256" cy="256" r="220" fill="none" stroke="#84AAA9" stroke-width="1.2" opacity="0.9"/>
<circle cx="256" cy="256" r="206" fill="none" stroke="#84AAA9" stroke-width="0.9" opacity="0.65"/>

<!-- 仅在边缘做一圈很细的纹样 -->
<g opacity="0.95">

        <g transform="rotate(90 470.0 256.0)">
            <path d="M458.0,256.0 q6,-5 12,0 t12,0"
                  fill="none" stroke="#84AAA9" stroke-width="1.9" stroke-linecap="round"/>
        </g>

        <g transform="rotate(120 441.3 363.0)">
            <path d="M429.3,363.0 q6,-5 12,0 t12,0"
                  fill="none" stroke="#84AAA9" stroke-width="1.9" stroke-linecap="round"/>
        </g>

        <g transform="rotate(150 363.0 441.3)">
            <path d="M351.0,441.3 q6,-5 12,0 t12,0"
                  fill="none" stroke="#84AAA9" stroke-width="1.9" stroke-linecap="round"/>
        </g>

        <g transform="rotate(180 256.0 470.0)">
            <path d="M244.0,470.0 q6,-5 12,0 t12,0"
                  fill="none" stroke="#84AAA9" stroke-width="1.9" stroke-linecap="round"/>
        </g>

        <g transform="rotate(210 149.0 441.3)">
            <path d="M137.0,441.3 q6,-5 12,0 t12,0"
                  fill="none" stroke="#84AAA9" stroke-width="1.9" stroke-linecap="round"/>
        </g>

        <g transform="rotate(240 70.7 363.0)">
            <path d="M58.7,363.0 q6,-5 12,0 t12,0"
                  fill="none" stroke="#84AAA9" stroke-width="1.9" stroke-linecap="round"/>
        </g>

        <g transform="rotate(270 42.0 256.0)">
            <path d="M30.0,256.0 q6,-5 12,0 t12,0"
                  fill="none" stroke="#84AAA9" stroke-width="1.9" stroke-linecap="round"/>
        </g>

        <g transform="rotate(300 70.7 149.0)">
            <path d="M58.7,149.0 q6,-5 12,0 t12,0"
                  fill="none" stroke="#84AAA9" stroke-width="1.9" stroke-linecap="round"/>
        </g>

        <g transform="rotate(330 149.0 70.7)">
            <path d="M137.0,70.7 q6,-5 12,0 t12,0"
                  fill="none" stroke="#84AAA9" stroke-width="1.9" stroke-linecap="round"/>
        </g>

        <g transform="rotate(360 256.0 42.0)">
            <path d="M244.0,42.0 q6,-5 12,0 t12,0"
                  fill="none" stroke="#84AAA9" stroke-width="1.9" stroke-linecap="round"/>
        </g>

        <g transform="rotate(390 363.0 70.7)">
            <path d="M351.0,70.7 q6,-5 12,0 t12,0"
                  fill="none" stroke="#84AAA9" stroke-width="1.9" stroke-linecap="round"/>
        </g>

        <g transform="rotate(420 441.3 149.0)">
            <path d="M429.3,149.0 q6,-5 12,0 t12,0"
                  fill="none" stroke="#84AAA9" stroke-width="1.9" stroke-linecap="round"/>
        </g>
</g>
</svg>