<svg xmlns="http://www.w3.org/2000/svg" width="512" height="512" viewBox="0 0 512 512">
<title>简约古风圆形_8_豆沙_团花</title>

<!-- 整体纯色填充 -->
<circle cx="256" cy="256" r="228" fill="#F4EBE8"/>

<!-- 简约细边框 -->
<circle cx="256" cy="256" r="228" fill="none" stroke="#957773" stroke-width="1.6" opacity="0.85"/>
<circle cx="256" cy="256" r="220" fill="none" stroke="#BE9A94" stroke-width="1.2" opacity="0.9"/>
<circle cx="256" cy="256" r="206" fill="none" stroke="#BE9A94" stroke-width="0.9" opacity="0.65"/>

<!-- 仅在边缘做一圈很细的纹样 -->
<g opacity="0.95">
<ellipse cx="470.0" cy="256.0" rx="3.2" ry="6.5" fill="none" stroke="#BE9A94" stroke-width="1.4" transform="rotate(0 470.0 256.0)"/>
<ellipse cx="470.0" cy="256.0" rx="3.2" ry="6.5" fill="none" stroke="#BE9A94" stroke-width="1.4" transform="rotate(45 470.0 256.0)"/>
<ellipse cx="470.0" cy="256.0" rx="3.2" ry="6.5" fill="none" stroke="#BE9A94" stroke-width="1.4" transform="rotate(90 470.0 256.0)"/>
<ellipse cx="470.0" cy="256.0" rx="3.2" ry="6.5" fill="none" stroke="#BE9A94" stroke-width="1.4" transform="rotate(135 470.0 256.0)"/>
<circle cx="470.0" cy="256.0" r="1.7" fill="#BE9A94"/>
<ellipse cx="429.1" cy="381.8" rx="3.2" ry="6.5" fill="none" stroke="#BE9A94" stroke-width="1.4" transform="rotate(36 429.1 381.8)"/>
<ellipse cx="429.1" cy="381.8" rx="3.2" ry="6.5" fill="none" stroke="#BE9A94" stroke-width="1.4" transform="rotate(81 429.1 381.8)"/>
<ellipse cx="429.1" cy="381.8" rx="3.2" ry="6.5" fill="none" stroke="#BE9A94" stroke-width="1.4" transform="rotate(126 429.1 381.8)"/>
<ellipse cx="429.1" cy="381.8" rx="3.2" ry="6.5" fill="none" stroke="#BE9A94" stroke-width="1.4" transform="rotate(171 429.1 381.8)"/>
<circle cx="429.1" cy="381.8" r="1.7" fill="#BE9A94"/>
<ellipse cx="322.1" cy="459.5" rx="3.2" ry="6.5" fill="none" stroke="#BE9A94" stroke-width="1.4" transform="rotate(72 322.1 459.5)"/>
<ellipse cx="322.1" cy="459.5" rx="3.2" ry="6.5" fill="none" stroke="#BE9A94" stroke-width="1.4" transform="rotate(117 322.1 459.5)"/>
<ellipse cx="322.1" cy="459.5" rx="3.2" ry="6.5" fill="none" stroke="#BE9A94" stroke-width="1.4" transform="rotate(162 322.1 459.5)"/>
<ellipse cx="322.1" cy="459.5" rx="3.2" ry="6.5" fill="none" stroke="#BE9A94" stroke-width="1.4" transform="rotate(207 322.1 459.5)"/>
<circle cx="322.1" cy="459.5" r="1.7" fill="#BE9A94"/>
<ellipse cx="189.9" cy="459.5" rx="3.2" ry="6.5" fill="none" stroke="#BE9A94" stroke-width="1.4" transform="rotate(108 189.9 459.5)"/>
<ellipse cx="189.9" cy="459.5" rx="3.2" ry="6.5" fill="none" stroke="#BE9A94" stroke-width="1.4" transform="rotate(153 189.9 459.5)"/>
<ellipse cx="189.9" cy="459.5" rx="3.2" ry="6.5" fill="none" stroke="#BE9A94" stroke-width="1.4" transform="rotate(198 189.9 459.5)"/>
<ellipse cx="189.9" cy="459.5" rx="3.2" ry="6.5" fill="none" stroke="#BE9A94" stroke-width="1.4" transform="rotate(243 189.9 459.5)"/>
<circle cx="189.9" cy="459.5" r="1.7" fill="#BE9A94"/>
<ellipse cx="82.9" cy="381.8" rx="3.2" ry="6.5" fill="none" stroke="#BE9A94" stroke-width="1.4" transform="rotate(144 82.9 381.8)"/>
<ellipse cx="82.9" cy="381.8" rx="3.2" ry="6.5" fill="none" stroke="#BE9A94" stroke-width="1.4" transform="rotate(189 82.9 381.8)"/>
<ellipse cx="82.9" cy="381.8" rx="3.2" ry="6.5" fill="none" stroke="#BE9A94" stroke-width="1.4" transform="rotate(234 82.9 381.8)"/>
<ellipse cx="82.9" cy="381.8" rx="3.2" ry="6.5" fill="none" stroke="#BE9A94" stroke-width="1.4" transform="rotate(279 82.9 381.8)"/>
<circle cx="82.9" cy="381.8" r="1.7" fill="#BE9A94"/>
<ellipse cx="42.0" cy="256.0" rx="3.2" ry="6.5" fill="none" stroke="#BE9A94" stroke-width="1.4" transform="rotate(180 42.0 256.0)"/>
<ellipse cx="42.0" cy="256.0" rx="3.2" ry="6.5" fill="none" stroke="#BE9A94" stroke-width="1.4" transform="rotate(225 42.0 256.0)"/>
<ellipse cx="42.0" cy="256.0" rx="3.2" ry="6.5" fill="none" stroke="#BE9A94" stroke-width="1.4" transform="rotate(270 42.0 256.0)"/>
<ellipse cx="42.0" cy="256.0" rx="3.2" ry="6.5" fill="none" stroke="#BE9A94" stroke-width="1.4" transform="rotate(315 42.0 256.0)"/>
<circle cx="42.0" cy="256.0" r="1.7" fill="#BE9A94"/>
<ellipse cx="82.9" cy="130.2" rx="3.2" ry="6.5" fill="none" stroke="#BE9A94" stroke-width="1.4" transform="rotate(216 82.9 130.2)"/>
<ellipse cx="82.9" cy="130.2" rx="3.2" ry="6.5" fill="none" stroke="#BE9A94" stroke-width="1.4" transform="rotate(261 82.9 130.2)"/>
<ellipse cx="82.9" cy="130.2" rx="3.2" ry="6.5" fill="none" stroke="#BE9A94" stroke-width="1.4" transform="rotate(306 82.9 130.2)"/>
<ellipse cx="82.9" cy="130.2" rx="3.2" ry="6.5" fill="none" stroke="#BE9A94" stroke-width="1.4" transform="rotate(351 82.9 130.2)"/>
<circle cx="82.9" cy="130.2" r="1.7" fill="#BE9A94"/>
<ellipse cx="189.9" cy="52.5" rx="3.2" ry="6.5" fill="none" stroke="#BE9A94" stroke-width="1.4" transform="rotate(252 189.9 52.5)"/>
<ellipse cx="189.9" cy="52.5" rx="3.2" ry="6.5" fill="none" stroke="#BE9A94" stroke-width="1.4" transform="rotate(297 189.9 52.5)"/>
<ellipse cx="189.9" cy="52.5" rx="3.2" ry="6.5" fill="none" stroke="#BE9A94" stroke-width="1.4" transform="rotate(342 189.9 52.5)"/>
<ellipse cx="189.9" cy="52.5" rx="3.2" ry="6.5" fill="none" stroke="#BE9A94" stroke-width="1.4" transform="rotate(387 189.9 52.5)"/>
<circle cx="189.9" cy="52.5" r="1.7" fill="#BE9A94"/>
<ellipse cx="322.1" cy="52.5" rx="3.2" ry="6.5" fill="none" stroke="#BE9A94" stroke-width="1.4" transform="rotate(288 322.1 52.5)"/>
<ellipse cx="322.1" cy="52.5" rx="3.2" ry="6.5" fill="none" stroke="#BE9A94" stroke-width="1.4" transform="rotate(333 322.1 52.5)"/>
<ellipse cx="322.1" cy="52.5" rx="3.2" ry="6.5" fill="none" stroke="#BE9A94" stroke-width="1.4" transform="rotate(378 322.1 52.5)"/>
<ellipse cx="322.1" cy="52.5" rx="3.2" ry="6.5" fill="none" stroke="#BE9A94" stroke-width="1.4" transform="rotate(423 322.1 52.5)"/>
<circle cx="322.1" cy="52.5" r="1.7" fill="#BE9A94"/>
<ellipse cx="429.1" cy="130.2" rx="3.2" ry="6.5" fill="none" stroke="#BE9A94" stroke-width="1.4" transform="rotate(324 429.1 130.2)"/>
<ellipse cx="429.1" cy="130.2" rx="3.2" ry="6.5" fill="none" stroke="#BE9A94" stroke-width="1.4" transform="rotate(369 429.1 130.2)"/>
<ellipse cx="429.1" cy="130.2" rx="3.2" ry="6.5" fill="none" stroke="#BE9A94" stroke-width="1.4" transform="rotate(414 429.1 130.2)"/>
<ellipse cx="429.1" cy="130.2" rx="3.2" ry="6.5" fill="none" stroke="#BE9A94" stroke-width="1.4" transform="rotate(459 429.1 130.2)"/>
<circle cx="429.1" cy="130.2" r="1.7" fill="#BE9A94"/>
</g>
</svg>