<svg xmlns="http://www.w3.org/2000/svg" width="512" height="512" viewBox="0 0 512 512">
<title>简约古风圆形_4_竹青_回纹</title>

<!-- 整体纯色填充 -->
<circle cx="256" cy="256" r="228" fill="#EDF3EE"/>

<!-- 简约细边框 -->
<circle cx="256" cy="256" r="228" fill="none" stroke="#728571" stroke-width="1.6" opacity="0.85"/>
<circle cx="256" cy="256" r="220" fill="none" stroke="#90A98F" stroke-width="1.2" opacity="0.9"/>
<circle cx="256" cy="256" r="206" fill="none" stroke="#90A98F" stroke-width="0.9" opacity="0.65"/>

<!-- 仅在边缘做一圈很细的纹样 -->
<g opacity="0.95">
<rect x="466.0" y="252.0" width="8" height="8" transform="rotate(0 470.0 256.0)" fill="#90A98F" opacity="0.95"/>
<rect x="458.7" y="307.4" width="8" height="8" transform="rotate(15 462.7 311.4)" fill="#90A98F" opacity="0.95"/>
<rect x="437.3" y="359.0" width="8" height="8" transform="rotate(30 441.3 363.0)" fill="#90A98F" opacity="0.95"/>
<rect x="403.3" y="403.3" width="8" height="8" transform="rotate(45 407.3 407.3)" fill="#90A98F" opacity="0.95"/>
<rect x="359.0" y="437.3" width="8" height="8" transform="rotate(60 363.0 441.3)" fill="#90A98F" opacity="0.95"/>
<rect x="307.4" y="458.7" width="8" height="8" transform="rotate(75 311.4 462.7)" fill="#90A98F" opacity="0.95"/>
<rect x="252.0" y="466.0" width="8" height="8" transform="rotate(90 256.0 470.0)" fill="#90A98F" opacity="0.95"/>
<rect x="196.6" y="458.7" width="8" height="8" transform="rotate(105 200.6 462.7)" fill="#90A98F" opacity="0.95"/>
<rect x="145.0" y="437.3" width="8" height="8" transform="rotate(120 149.0 441.3)" fill="#90A98F" opacity="0.95"/>
<rect x="100.7" y="403.3" width="8" height="8" transform="rotate(135 104.7 407.3)" fill="#90A98F" opacity="0.95"/>
<rect x="66.7" y="359.0" width="8" height="8" transform="rotate(150 70.7 363.0)" fill="#90A98F" opacity="0.95"/>
<rect x="45.3" y="307.4" width="8" height="8" transform="rotate(165 49.3 311.4)" fill="#90A98F" opacity="0.95"/>
<rect x="38.0" y="252.0" width="8" height="8" transform="rotate(180 42.0 256.0)" fill="#90A98F" opacity="0.95"/>
<rect x="45.3" y="196.6" width="8" height="8" transform="rotate(195 49.3 200.6)" fill="#90A98F" opacity="0.95"/>
<rect x="66.7" y="145.0" width="8" height="8" transform="rotate(210 70.7 149.0)" fill="#90A98F" opacity="0.95"/>
<rect x="100.7" y="100.7" width="8" height="8" transform="rotate(225 104.7 104.7)" fill="#90A98F" opacity="0.95"/>
<rect x="145.0" y="66.7" width="8" height="8" transform="rotate(240 149.0 70.7)" fill="#90A98F" opacity="0.95"/>
<rect x="196.6" y="45.3" width="8" height="8" transform="rotate(255 200.6 49.3)" fill="#90A98F" opacity="0.95"/>
<rect x="252.0" y="38.0" width="8" height="8" transform="rotate(270 256.0 42.0)" fill="#90A98F" opacity="0.95"/>
<rect x="307.4" y="45.3" width="8" height="8" transform="rotate(285 311.4 49.3)" fill="#90A98F" opacity="0.95"/>
<rect x="359.0" y="66.7" width="8" height="8" transform="rotate(300 363.0 70.7)" fill="#90A98F" opacity="0.95"/>
<rect x="403.3" y="100.7" width="8" height="8" transform="rotate(315 407.3 104.7)" fill="#90A98F" opacity="0.95"/>
<rect x="437.3" y="145.0" width="8" height="8" transform="rotate(330 441.3 149.0)" fill="#90A98F" opacity="0.95"/>
<rect x="458.7" y="196.6" width="8" height="8" transform="rotate(345 462.7 200.6)" fill="#90A98F" opacity="0.95"/>
</g>
</svg>