<svg xmlns="http://www.w3.org/2000/svg" width="512" height="512" viewBox="0 0 512 512">
<title>简约古风圆形_9_松花_卷草</title>

<!-- 整体纯色填充 -->
<circle cx="256" cy="256" r="228" fill="#F3F3E8"/>

<!-- 简约细边框 -->
<circle cx="256" cy="256" r="228" fill="none" stroke="#8F915F" stroke-width="1.6" opacity="0.85"/>
<circle cx="256" cy="256" r="220" fill="none" stroke="#B8BA87" stroke-width="1.2" opacity="0.9"/>
<circle cx="256" cy="256" r="206" fill="none" stroke="#B8BA87" stroke-width="0.9" opacity="0.65"/>

<!-- 仅在边缘做一圈很细的纹样 -->
<g opacity="0.95">

        <g transform="rotate(90 470.0 256.0)">
            <path d="M460.0,256.0 
                     c2,-7 9,-7 10,0
                     c1,6 -5,7 -7,4
                     c2,2 6,2 8,0"
                  fill="none" stroke="#B8BA87" stroke-width="1.8" stroke-linecap="round" stroke-linejoin="round"/>
        </g>

        <g transform="rotate(120 441.3 363.0)">
            <path d="M431.3,363.0 
                     c2,-7 9,-7 10,0
                     c1,6 -5,7 -7,4
                     c2,2 6,2 8,0"
                  fill="none" stroke="#B8BA87" stroke-width="1.8" stroke-linecap="round" stroke-linejoin="round"/>
        </g>

        <g transform="rotate(150 363.0 441.3)">
            <path d="M353.0,441.3 
                     c2,-7 9,-7 10,0
                     c1,6 -5,7 -7,4
                     c2,2 6,2 8,0"
                  fill="none" stroke="#B8BA87" stroke-width="1.8" stroke-linecap="round" stroke-linejoin="round"/>
        </g>

        <g transform="rotate(180 256.0 470.0)">
            <path d="M246.0,470.0 
                     c2,-7 9,-7 10,0
                     c1,6 -5,7 -7,4
                     c2,2 6,2 8,0"
                  fill="none" stroke="#B8BA87" stroke-width="1.8" stroke-linecap="round" stroke-linejoin="round"/>
        </g>

        <g transform="rotate(210 149.0 441.3)">
            <path d="M139.0,441.3 
                     c2,-7 9,-7 10,0
                     c1,6 -5,7 -7,4
                     c2,2 6,2 8,0"
                  fill="none" stroke="#B8BA87" stroke-width="1.8" stroke-linecap="round" stroke-linejoin="round"/>
        </g>

        <g transform="rotate(240 70.7 363.0)">
            <path d="M60.7,363.0 
                     c2,-7 9,-7 10,0
                     c1,6 -5,7 -7,4
                     c2,2 6,2 8,0"
                  fill="none" stroke="#B8BA87" stroke-width="1.8" stroke-linecap="round" stroke-linejoin="round"/>
        </g>

        <g transform="rotate(270 42.0 256.0)">
            <path d="M32.0,256.0 
                     c2,-7 9,-7 10,0
                     c1,6 -5,7 -7,4
                     c2,2 6,2 8,0"
                  fill="none" stroke="#B8BA87" stroke-width="1.8" stroke-linecap="round" stroke-linejoin="round"/>
        </g>

        <g transform="rotate(300 70.7 149.0)">
            <path d="M60.7,149.0 
                     c2,-7 9,-7 10,0
                     c1,6 -5,7 -7,4
                     c2,2 6,2 8,0"
                  fill="none" stroke="#B8BA87" stroke-width="1.8" stroke-linecap="round" stroke-linejoin="round"/>
        </g>

        <g transform="rotate(330 149.0 70.7)">
            <path d="M139.0,70.7 
                     c2,-7 9,-7 10,0
                     c1,6 -5,7 -7,4
                     c2,2 6,2 8,0"
                  fill="none" stroke="#B8BA87" stroke-width="1.8" stroke-linecap="round" stroke-linejoin="round"/>
        </g>

        <g transform="rotate(360 256.0 42.0)">
            <path d="M246.0,42.0 
                     c2,-7 9,-7 10,0
                     c1,6 -5,7 -7,4
                     c2,2 6,2 8,0"
                  fill="none" stroke="#B8BA87" stroke-width="1.8" stroke-linecap="round" stroke-linejoin="round"/>
        </g>

        <g transform="rotate(390 363.0 70.7)">
            <path d="M353.0,70.7 
                     c2,-7 9,-7 10,0
                     c1,6 -5,7 -7,4
                     c2,2 6,2 8,0"
                  fill="none" stroke="#B8BA87" stroke-width="1.8" stroke-linecap="round" stroke-linejoin="round"/>
        </g>

        <g transform="rotate(420 441.3 149.0)">
            <path d="M431.3,149.0 
                     c2,-7 9,-7 10,0
                     c1,6 -5,7 -7,4
                     c2,2 6,2 8,0"
                  fill="none" stroke="#B8BA87" stroke-width="1.8" stroke-linecap="round" stroke-linejoin="round"/>
        </g>
</g>
</svg>