<svg xmlns="http://www.w3.org/2000/svg" width="512" height="512" viewBox="0 0 512 512">
<title>简约古风圆形_3_藕荷_如意云</title>

<!-- 整体纯色填充 -->
<circle cx="256" cy="256" r="228" fill="#F3EAEE"/>

<!-- 简约细边框 -->
<circle cx="256" cy="256" r="228" fill="none" stroke="#8F6F81" stroke-width="1.6" opacity="0.85"/>
<circle cx="256" cy="256" r="220" fill="none" stroke="#B692A5" stroke-width="1.2" opacity="0.9"/>
<circle cx="256" cy="256" r="206" fill="none" stroke="#B692A5" stroke-width="0.9" opacity="0.65"/>

<!-- 仅在边缘做一圈很细的纹样 -->
<g opacity="0.95">

        <g transform="rotate(90 470.0 256.0)">
            <path d="M456.0,256.0
                     c4,-8 14,-8 18,0
                     c4,-6 12,-6 16,0
                     c4,8 -4,12 -12,10
                     c-4,5 -13,5 -18,0"
                  fill="none" stroke="#B692A5" stroke-width="1.8" stroke-linecap="round" stroke-linejoin="round"/>
        </g>
        

        <g transform="rotate(135 407.3 407.3)">
            <path d="M393.3,407.3
                     c4,-8 14,-8 18,0
                     c4,-6 12,-6 16,0
                     c4,8 -4,12 -12,10
                     c-4,5 -13,5 -18,0"
                  fill="none" stroke="#B692A5" stroke-width="1.8" stroke-linecap="round" stroke-linejoin="round"/>
        </g>
        

        <g transform="rotate(180 256.0 470.0)">
            <path d="M242.0,470.0
                     c4,-8 14,-8 18,0
                     c4,-6 12,-6 16,0
                     c4,8 -4,12 -12,10
                     c-4,5 -13,5 -18,0"
                  fill="none" stroke="#B692A5" stroke-width="1.8" stroke-linecap="round" stroke-linejoin="round"/>
        </g>
        

        <g transform="rotate(225 104.7 407.3)">
            <path d="M90.7,407.3
                     c4,-8 14,-8 18,0
                     c4,-6 12,-6 16,0
                     c4,8 -4,12 -12,10
                     c-4,5 -13,5 -18,0"
                  fill="none" stroke="#B692A5" stroke-width="1.8" stroke-linecap="round" stroke-linejoin="round"/>
        </g>
        

        <g transform="rotate(270 42.0 256.0)">
            <path d="M28.0,256.0
                     c4,-8 14,-8 18,0
                     c4,-6 12,-6 16,0
                     c4,8 -4,12 -12,10
                     c-4,5 -13,5 -18,0"
                  fill="none" stroke="#B692A5" stroke-width="1.8" stroke-linecap="round" stroke-linejoin="round"/>
        </g>
        

        <g transform="rotate(315 104.7 104.7)">
            <path d="M90.7,104.7
                     c4,-8 14,-8 18,0
                     c4,-6 12,-6 16,0
                     c4,8 -4,12 -12,10
                     c-4,5 -13,5 -18,0"
                  fill="none" stroke="#B692A5" stroke-width="1.8" stroke-linecap="round" stroke-linejoin="round"/>
        </g>
        

        <g transform="rotate(360 256.0 42.0)">
            <path d="M242.0,42.0
                     c4,-8 14,-8 18,0
                     c4,-6 12,-6 16,0
                     c4,8 -4,12 -12,10
                     c-4,5 -13,5 -18,0"
                  fill="none" stroke="#B692A5" stroke-width="1.8" stroke-linecap="round" stroke-linejoin="round"/>
        </g>
        

        <g transform="rotate(405 407.3 104.7)">
            <path d="M393.3,104.7
                     c4,-8 14,-8 18,0
                     c4,-6 12,-6 16,0
                     c4,8 -4,12 -12,10
                     c-4,5 -13,5 -18,0"
                  fill="none" stroke="#B692A5" stroke-width="1.8" stroke-linecap="round" stroke-linejoin="round"/>
        </g>
        
</g>
</svg>